<svg width="1079" height="15" viewBox="0 0 1079 15" fill="none" xmlns="http://www.w3.org/2000/svg">
<rect width="1079" height="15" rx="7.5" fill="white"/>
<rect x="0.5" y="0.5" width="1078" height="14" rx="7" stroke="black" stroke-opacity="0.7"/>
<rect width="78" height="15" rx="7.5" fill="#FFE713"/>
<rect x="0.5" y="0.5" width="77" height="14" rx="7" stroke="black" stroke-opacity="0.7"/>
<path d="M1043.87 12V4.2L1044.56 4.908H1042.1V3.6H1045.43V12H1043.87ZM1050.47 12.12C1049.77 12.12 1049.17 12.016 1048.66 11.808C1048.15 11.6 1047.75 11.308 1047.47 10.932C1047.19 10.548 1047.05 10.1 1047.05 9.588C1047.05 9.076 1047.19 8.644 1047.46 8.292C1047.73 7.94 1048.12 7.672 1048.63 7.488C1049.15 7.304 1049.76 7.212 1050.47 7.212C1051.18 7.212 1051.79 7.304 1052.31 7.488C1052.83 7.672 1053.22 7.944 1053.49 8.304C1053.77 8.656 1053.91 9.084 1053.91 9.588C1053.91 10.1 1053.77 10.548 1053.48 10.932C1053.2 11.308 1052.8 11.6 1052.28 11.808C1051.77 12.016 1051.17 12.12 1050.47 12.12ZM1050.47 10.896C1051.05 10.896 1051.5 10.776 1051.84 10.536C1052.17 10.296 1052.34 9.964 1052.34 9.54C1052.34 9.124 1052.17 8.796 1051.84 8.556C1051.5 8.316 1051.05 8.196 1050.47 8.196C1049.89 8.196 1049.44 8.316 1049.11 8.556C1048.79 8.796 1048.62 9.124 1048.62 9.54C1048.62 9.964 1048.79 10.296 1049.11 10.536C1049.44 10.776 1049.89 10.896 1050.47 10.896ZM1050.47 8.028C1049.82 8.028 1049.27 7.944 1048.8 7.776C1048.34 7.6 1047.98 7.348 1047.72 7.02C1047.47 6.684 1047.35 6.284 1047.35 5.82C1047.35 5.34 1047.48 4.928 1047.73 4.584C1048 4.232 1048.37 3.96 1048.84 3.768C1049.31 3.576 1049.85 3.48 1050.47 3.48C1051.09 3.48 1051.64 3.576 1052.11 3.768C1052.59 3.96 1052.95 4.232 1053.22 4.584C1053.48 4.928 1053.61 5.34 1053.61 5.82C1053.61 6.284 1053.49 6.684 1053.23 7.02C1052.98 7.348 1052.62 7.6 1052.15 7.776C1051.68 7.944 1051.12 8.028 1050.47 8.028ZM1050.47 7.068C1050.97 7.068 1051.36 6.964 1051.65 6.756C1051.93 6.54 1052.08 6.252 1052.08 5.892C1052.08 5.516 1051.93 5.224 1051.63 5.016C1051.34 4.808 1050.95 4.704 1050.47 4.704C1049.99 4.704 1049.61 4.808 1049.32 5.016C1049.03 5.224 1048.89 5.516 1048.89 5.892C1048.89 6.252 1049.03 6.54 1049.31 6.756C1049.59 6.964 1049.98 7.068 1050.47 7.068ZM1055.86 7.512C1055.59 7.512 1055.36 7.42 1055.17 7.236C1054.97 7.044 1054.88 6.804 1054.88 6.516C1054.88 6.212 1054.97 5.972 1055.17 5.796C1055.36 5.612 1055.59 5.52 1055.86 5.52C1056.13 5.52 1056.37 5.612 1056.56 5.796C1056.75 5.972 1056.85 6.212 1056.85 6.516C1056.85 6.804 1056.75 7.044 1056.56 7.236C1056.37 7.42 1056.13 7.512 1055.86 7.512ZM1055.86 12.084C1055.59 12.084 1055.36 11.992 1055.17 11.808C1054.97 11.616 1054.88 11.376 1054.88 11.088C1054.88 10.784 1054.97 10.544 1055.17 10.368C1055.36 10.184 1055.59 10.092 1055.86 10.092C1056.13 10.092 1056.37 10.184 1056.56 10.368C1056.75 10.544 1056.85 10.784 1056.85 11.088C1056.85 11.376 1056.75 11.616 1056.56 11.808C1056.37 11.992 1056.13 12.084 1055.86 12.084ZM1061.36 12.12C1060.7 12.12 1060.1 11.952 1059.56 11.616C1059.03 11.28 1058.62 10.792 1058.31 10.152C1058.01 9.504 1057.86 8.72 1057.86 7.8C1057.86 6.88 1058.01 6.1 1058.31 5.46C1058.62 4.812 1059.03 4.32 1059.56 3.984C1060.1 3.648 1060.7 3.48 1061.36 3.48C1062.03 3.48 1062.63 3.648 1063.16 3.984C1063.69 4.32 1064.1 4.812 1064.41 5.46C1064.72 6.1 1064.88 6.88 1064.88 7.8C1064.88 8.72 1064.72 9.504 1064.41 10.152C1064.1 10.792 1063.69 11.28 1063.16 11.616C1062.63 11.952 1062.03 12.12 1061.36 12.12ZM1061.36 10.764C1061.75 10.764 1062.09 10.66 1062.38 10.452C1062.67 10.236 1062.89 9.908 1063.05 9.468C1063.22 9.028 1063.3 8.472 1063.3 7.8C1063.3 7.12 1063.22 6.564 1063.05 6.132C1062.89 5.692 1062.67 5.368 1062.38 5.16C1062.09 4.944 1061.75 4.836 1061.36 4.836C1060.98 4.836 1060.65 4.944 1060.35 5.16C1060.06 5.368 1059.84 5.692 1059.67 6.132C1059.51 6.564 1059.43 7.12 1059.43 7.8C1059.43 8.472 1059.51 9.028 1059.67 9.468C1059.84 9.908 1060.06 10.236 1060.35 10.452C1060.65 10.66 1060.98 10.764 1061.36 10.764ZM1069.43 12.12C1068.77 12.12 1068.17 11.952 1067.63 11.616C1067.11 11.28 1066.69 10.792 1066.39 10.152C1066.08 9.504 1065.93 8.72 1065.93 7.8C1065.93 6.88 1066.08 6.1 1066.39 5.46C1066.69 4.812 1067.11 4.32 1067.63 3.984C1068.17 3.648 1068.77 3.48 1069.43 3.48C1070.11 3.48 1070.71 3.648 1071.23 3.984C1071.76 4.32 1072.18 4.812 1072.48 5.46C1072.79 6.1 1072.95 6.88 1072.95 7.8C1072.95 8.72 1072.79 9.504 1072.48 10.152C1072.18 10.792 1071.76 11.28 1071.23 11.616C1070.71 11.952 1070.11 12.12 1069.43 12.12ZM1069.43 10.764C1069.83 10.764 1070.17 10.66 1070.45 10.452C1070.74 10.236 1070.97 9.908 1071.13 9.468C1071.29 9.028 1071.38 8.472 1071.38 7.8C1071.38 7.12 1071.29 6.564 1071.13 6.132C1070.97 5.692 1070.74 5.368 1070.45 5.16C1070.17 4.944 1069.83 4.836 1069.43 4.836C1069.06 4.836 1068.72 4.944 1068.43 5.16C1068.14 5.368 1067.91 5.692 1067.74 6.132C1067.58 6.564 1067.5 7.12 1067.5 7.8C1067.5 8.472 1067.58 9.028 1067.74 9.468C1067.91 9.908 1068.14 10.236 1068.43 10.452C1068.72 10.66 1069.06 10.764 1069.43 10.764Z" fill="black"/>
<path d="M8.872 12V4.2L9.556 4.908H7.096V3.6H10.432V12H8.872ZM11.9783 10.092V9.012L16.1183 3.6H17.7863L13.7063 9.012L12.9263 8.772H19.5863V10.092H11.9783ZM16.5863 12V10.092L16.6343 8.772V7.08H18.0983V12H16.5863ZM21.2609 7.512C20.9889 7.512 20.7569 7.42 20.5649 7.236C20.3729 7.044 20.2769 6.804 20.2769 6.516C20.2769 6.212 20.3729 5.972 20.5649 5.796C20.7569 5.612 20.9889 5.52 21.2609 5.52C21.5329 5.52 21.7649 5.612 21.9569 5.796C22.1489 5.972 22.2449 6.212 22.2449 6.516C22.2449 6.804 22.1489 7.044 21.9569 7.236C21.7649 7.42 21.5329 7.512 21.2609 7.512ZM21.2609 12.084C20.9889 12.084 20.7569 11.992 20.5649 11.808C20.3729 11.616 20.2769 11.376 20.2769 11.088C20.2769 10.784 20.3729 10.544 20.5649 10.368C20.7569 10.184 20.9889 10.092 21.2609 10.092C21.5329 10.092 21.7649 10.184 21.9569 10.368C22.1489 10.544 22.2449 10.784 22.2449 11.088C22.2449 11.376 22.1489 11.616 21.9569 11.808C21.7649 11.992 21.5329 12.084 21.2609 12.084ZM24.5986 12V4.2L25.2826 4.908H22.8226V3.6H26.1586V12H24.5986ZM27.7169 12V10.956L31.0529 7.788C31.3329 7.524 31.5409 7.292 31.6769 7.092C31.8129 6.892 31.9009 6.708 31.9409 6.54C31.9889 6.364 32.0129 6.2 32.0129 6.048C32.0129 5.664 31.8809 5.368 31.6169 5.16C31.3529 4.944 30.9649 4.836 30.4529 4.836C30.0449 4.836 29.6729 4.908 29.3369 5.052C29.0089 5.196 28.7249 5.416 28.4849 5.712L27.3929 4.872C27.7209 4.432 28.1609 4.092 28.7129 3.852C29.2729 3.604 29.8969 3.48 30.5849 3.48C31.1929 3.48 31.7209 3.58 32.1689 3.78C32.6249 3.972 32.9729 4.248 33.2129 4.608C33.4609 4.968 33.5849 5.396 33.5849 5.892C33.5849 6.164 33.5489 6.436 33.4769 6.708C33.4049 6.972 33.2689 7.252 33.0689 7.548C32.8689 7.844 32.5769 8.176 32.1929 8.544L29.3249 11.268L29.0009 10.68H33.9089V12H27.7169Z" fill="black"/>
</svg>
