<svg width="207" height="19" viewBox="0 0 207 19" fill="000000" xmlns="http://www.w3.org/2000/svg">
<path d="M0.326465 18V0.499999H4.37646V18H0.326465ZM8.52959 18V0.499999H11.8796L22.2046 13.1H20.5796V0.499999H24.5796V18H21.2546L10.9046 5.4H12.5296V18H8.52959ZM34.47 18.3C33.07 18.3 31.7284 18.1167 30.445 17.75C29.1617 17.3667 28.1284 16.875 27.345 16.275L28.72 13.225C29.47 13.7583 30.3534 14.2 31.37 14.55C32.4034 14.8833 33.445 15.05 34.495 15.05C35.295 15.05 35.9367 14.975 36.42 14.825C36.92 14.6583 37.2867 14.4333 37.52 14.15C37.7534 13.8667 37.87 13.5417 37.87 13.175C37.87 12.7083 37.6867 12.3417 37.32 12.075C36.9534 11.7917 36.47 11.5667 35.87 11.4C35.27 11.2167 34.6034 11.05 33.87 10.9C33.1534 10.7333 32.4284 10.5333 31.695 10.3C30.9784 10.0667 30.32 9.76667 29.72 9.4C29.12 9.03333 28.6284 8.55 28.245 7.95C27.8784 7.35 27.695 6.58333 27.695 5.65C27.695 4.65 27.9617 3.74167 28.495 2.925C29.045 2.09167 29.8617 1.43333 30.945 0.949999C32.045 0.449999 33.42 0.2 35.07 0.2C36.17 0.2 37.2534 0.333333 38.32 0.599999C39.3867 0.849999 40.3284 1.23333 41.145 1.75L39.895 4.825C39.0784 4.35833 38.2617 4.01667 37.445 3.8C36.6284 3.56667 35.8284 3.45 35.045 3.45C34.2617 3.45 33.62 3.54167 33.12 3.725C32.62 3.90833 32.2617 4.15 32.045 4.45C31.8284 4.73333 31.72 5.06667 31.72 5.45C31.72 5.9 31.9034 6.26667 32.27 6.55C32.6367 6.81667 33.12 7.03333 33.72 7.2C34.32 7.36667 34.9784 7.53333 35.695 7.7C36.4284 7.86667 37.1534 8.05833 37.87 8.275C38.6034 8.49167 39.27 8.78333 39.87 9.15C40.47 9.51667 40.9534 10 41.32 10.6C41.7034 11.2 41.895 11.9583 41.895 12.875C41.895 13.8583 41.62 14.7583 41.07 15.575C40.52 16.3917 39.695 17.05 38.595 17.55C37.5117 18.05 36.1367 18.3 34.47 18.3ZM48.0433 18V3.8H42.4433V0.499999H57.6933V3.8H52.0933V18H48.0433ZM63.8806 18V10.85L64.8056 13.3L57.1056 0.499999H61.4056L67.3056 10.325H64.8306L70.7556 0.499999H74.7306L67.0306 13.3L67.9306 10.85V18H63.8806ZM76.2786 18V0.499999H80.3286V14.7H89.1036V18H76.2786ZM95.0915 7.55H103.517V10.7H95.0915V7.55ZM95.3915 14.75H104.917V18H91.3665V0.499999H104.592V3.75H95.3915V14.75ZM115.457 18V0.499999H122.007C123.49 0.499999 124.765 0.741666 125.832 1.225C126.899 1.69167 127.715 2.375 128.282 3.275C128.865 4.15833 129.157 5.23333 129.157 6.5C129.157 7.73333 128.865 8.8 128.282 9.7C127.715 10.5833 126.899 11.2667 125.832 11.75C124.765 12.2167 123.49 12.45 122.007 12.45H116.482L117.307 11.6V18H115.457ZM127.407 18L122.907 11.65H124.907L129.432 18H127.407ZM117.307 11.75L116.482 10.875H121.957C123.707 10.875 125.032 10.4917 125.932 9.725C126.849 8.95833 127.307 7.88333 127.307 6.5C127.307 5.1 126.849 4.01667 125.932 3.25C125.032 2.48333 123.707 2.1 121.957 2.1H116.482L117.307 1.225V11.75ZM135.173 8.325H144.423V9.9H135.173V8.325ZM135.373 16.4H145.898V18H133.523V0.499999H145.523V2.1H135.373V16.4ZM150.247 18V0.499999H156.797C158.28 0.499999 159.555 0.741666 160.622 1.225C161.689 1.69167 162.505 2.375 163.072 3.275C163.655 4.15833 163.947 5.23333 163.947 6.5C163.947 7.73333 163.655 8.8 163.072 9.7C162.505 10.5833 161.689 11.2667 160.622 11.75C159.555 12.2333 158.28 12.475 156.797 12.475H151.272L152.097 11.6V18H150.247ZM152.097 11.75L151.272 10.85H156.747C158.497 10.85 159.822 10.475 160.722 9.725C161.639 8.95833 162.097 7.88333 162.097 6.5C162.097 5.1 161.639 4.01667 160.722 3.25C159.822 2.48333 158.497 2.1 156.747 2.1H151.272L152.097 1.225V11.75ZM164.268 18L172.268 0.499999H174.093L182.093 18H180.143L172.793 1.575H173.543L166.193 18H164.268ZM167.418 13.325L167.968 11.825H178.143L178.693 13.325H167.418ZM184.988 18V0.499999H186.838V18H184.988ZM192.532 18V0.499999H199.082C200.565 0.499999 201.84 0.741666 202.907 1.225C203.974 1.69167 204.79 2.375 205.357 3.275C205.94 4.15833 206.232 5.23333 206.232 6.5C206.232 7.73333 205.94 8.8 205.357 9.7C204.79 10.5833 203.974 11.2667 202.907 11.75C201.84 12.2167 200.565 12.45 199.082 12.45H193.557L194.382 11.6V18H192.532ZM204.482 18L199.982 11.65H201.982L206.507 18H204.482ZM194.382 11.75L193.557 10.875H199.032C200.782 10.875 202.107 10.4917 203.007 9.725C203.924 8.95833 204.382 7.88333 204.382 6.5C204.382 5.1 203.924 4.01667 203.007 3.25C202.107 2.48333 200.782 2.1 199.032 2.1H193.557L194.382 1.225V11.75Z" fill="white"/>
</svg>
